<svg
        xmlns="http://www.w3.org/2000/svg"
        xmlns:svg="http://www.w3.org/2000/svg"
        xmlns:xlink="http://www.w3.org/1999/xlink" id="svg2"
        viewBox="0 0 126 126" version="1.0"
>
    <g id="layer1" transform="translate(-49.5 -31.862)">
        <rect id="rect2387" style="stroke:#000000;fill:#000000" ry="18.214" height="105" width="105" y="42.362" x="60"/>
        <rect id="rect3159" style="fill:#00ec00" height="5" width="5" y="57.362" x="75"/>
        <rect id="rect3161" style="fill:#00ec00" height="5" width="5" y="62.362" x="80"/>
        <rect id="rect3163" style="fill:#00ec00" height="5" width="5" y="67.362" x="85"/>
        <rect id="rect3165" style="fill:#00ec00" height="5" width="5" y="72.362" x="90"/>
        <rect id="rect3175" style="fill:#00ec00" height="5" width="5" y="77.362" x="95"/>
        <rect id="rect3177" style="fill:#00ec00" transform="scale(-1,1)" height="5" width="5" y="57.362" x="-100"/>
        <rect id="rect3179" style="fill:#00ec00" transform="scale(-1,1)" height="5" width="5" y="62.362" x="-95"/>
        <rect id="rect3181" style="fill:#00ec00" transform="scale(-1,1)" height="5" width="5" y="67.362" x="-90"/>
        <rect id="rect3183" style="fill:#00ec00" transform="scale(-1,1)" height="5" width="5" y="72.362" x="-85"/>
        <rect id="rect3185" style="fill:#00ec00" transform="scale(-1,1)" height="5" width="5" y="77.362" x="-80"/>
        <rect id="rect3187" style="fill:#00ec00" height="5" width="5" y="57.362" x="125"/>
        <rect id="rect3189" style="fill:#00ec00" height="5" width="5" y="62.362" x="130"/>
        <rect id="rect3191" style="fill:#00ec00" height="5" width="5" y="67.362" x="135"/>
        <rect id="rect3193" style="fill:#00ec00" height="5" width="5" y="72.362" x="140"/>
        <rect id="rect3195" style="fill:#00ec00" height="5" width="5" y="77.362" x="145"/>
        <rect id="rect3197" style="fill:#00ec00" transform="scale(-1,1)" height="5" width="5" y="57.362" x="-150"/>
        <rect id="rect3199" style="fill:#00ec00" transform="scale(-1,1)" height="5" width="5" y="62.362" x="-145"/>
        <rect id="rect3201" style="fill:#00ec00" transform="scale(-1,1)" height="5" width="5" y="67.362" x="-140"/>
        <rect id="rect3203" style="fill:#00ec00" transform="scale(-1,1)" height="5" width="5" y="72.362" x="-135"/>
        <rect id="rect3205" style="fill:#00ec00" transform="scale(-1,1)" height="5" width="5" y="77.362" x="-130"/>
        <g transform="translate(0,244) scale(1, -1)">
            <rect id="rect3207" style="fill:#00ec00" transform="scale(-1,1)" height="5" width="5" y="127.36" x="-85"/>
            <rect id="rect3209" style="fill:#00ec00" transform="scale(-1,1)" height="5" width="5" y="122.36" x="-85"/>
            <rect id="rect3211" style="fill:#00ec00" transform="scale(-1,1)" height="5" width="5" y="117.36" x="-90"/>
            <rect id="rect3213" style="fill:#00ec00" transform="scale(-1,1)" height="5" width="5" y="112.36" x="-95"/>
            <rect id="rect3215" style="fill:#00ec00" transform="scale(-1,1)" height="5" width="5" y="112.36" x="-100"/>
            <rect id="rect3217" style="fill:#00ec00" transform="scale(-1,1)" height="5" width="5" y="112.36" x="-105"/>
            <rect id="rect3219" style="fill:#00ec00" transform="scale(-1,1)" height="5" width="5" y="112.36" x="-110"/>
            <rect id="rect3221" style="fill:#00ec00" transform="scale(-1,1)" height="5" width="5" y="112.36" x="-115"/>
            <rect id="rect3223" style="fill:#00ec00" transform="scale(-1,1)" height="5" width="5" y="112.36" x="-120"/>
            <rect id="rect3225" style="fill:#00ec00" transform="scale(-1,1)" height="5" width="5" y="112.36" x="-125"/>
            <rect id="rect3227" style="fill:#00ec00" transform="scale(-1,1)" height="5" width="5" y="112.36" x="-130"/>
            <rect id="rect3229" style="fill:#00ec00" transform="scale(-1,1)" height="5" width="5" y="112.36" x="-135"/>
            <rect id="rect3231" style="fill:#00ec00" height="5" width="5" y="127.36" x="140"/>
            <rect id="rect3233" style="fill:#00ec00" height="5" width="5" y="122.36" x="140"/>
            <rect id="rect3235" style="fill:#00ec00" height="5" width="5" y="117.36" x="135"/>
            <rect id="rect3237" style="fill:#00ec00" height="5" width="5" y="112.36" x="130"/>
        </g>
    </g>
</svg>
